<?xml version="1.0" encoding="utf-8"?>
<!-- Generator: Adobe Illustrator 16.0.0, SVG Export Plug-In . SVG Version: 6.00 Build 0)  -->
<!DOCTYPE svg PUBLIC "-//W3C//DTD SVG 1.1//EN" "http://www.w3.org/Graphics/SVG/1.1/DTD/svg11.dtd">
<svg version="1.1" xmlns="http://www.w3.org/2000/svg" xmlns:xlink="http://www.w3.org/1999/xlink" x="0px" y="0px"
	 width="595.281px" height="841.89px" viewBox="0 0 595.281 841.89" enable-background="new 0 0 595.281 841.89"
	 xml:space="preserve">
<g id="Secound_page">
	<g id="Dotted_Paths_1_">
		
			<line fill="none" stroke="#E6E7E8" stroke-miterlimit="10" stroke-dasharray="1,2" x1="51.31" y1="91.046" x2="546.822" y2="90.874"/>
		
			<line fill="none" stroke="#E6E7E8" stroke-linecap="square" stroke-miterlimit="10" stroke-dasharray="1,2" x1="51.31" y1="220.053" x2="546.822" y2="219.881"/>
		
			<line fill="none" stroke="#E6E7E8" stroke-linecap="square" stroke-miterlimit="10" stroke-dasharray="1,2" x1="51.335" y1="572.242" x2="546.85" y2="572.07"/>
		
			<line fill="none" stroke="#E6E7E8" stroke-linecap="square" stroke-miterlimit="10" stroke-dasharray="1,2" x1="51.335" y1="407.227" x2="546.85" y2="407.055"/>
	</g>
	<rect x="49.919" y="582.649" fill="none" width="497.015" height="37.844"/>
	<text id="Hobbies" transform="matrix(1 0 0 1 49.9189 594.8945)"><tspan x="0" y="0" fill="#00AEEF" font-family="'Oswald'" font-size="14">Hobbies</tspan><tspan x="10" y="17.001" fill="#58595B" font-family="'SourceSansPro-Light'" font-size="9">like | like | like | like</tspan></text>
	<rect x="49.919" y="418.654" fill="none" width="497.015" height="208.682"/>
	<text id="Awards" transform="matrix(1 0 0 1 49.9082 430.8965)"><tspan x="0" y="0" fill="#00AEEF" font-family="'Oswald'" font-size="14">Awards</tspan><tspan x="10" y="19" font-family="'SourceSansPro-Regular'" font-size="11">The Award</tspan><tspan x="10" y="30" fill="#808285" font-family="'SourceSansPro-LightIt'" font-size="9">Project | mm yyyy</tspan><tspan x="10" y="49" font-family="'SourceSansPro-Regular'" font-size="11">The Award</tspan><tspan x="10" y="60" fill="#808285" font-family="'SourceSansPro-LightIt'" font-size="9">Project | mm yyyy</tspan><tspan x="10" y="79" font-family="'SourceSansPro-Regular'" font-size="11">The Award</tspan><tspan x="10" y="90" fill="#808285" font-family="'SourceSansPro-LightIt'" font-size="9">Project | mm yyyy</tspan><tspan x="10" y="109" font-family="'SourceSansPro-Regular'" font-size="11">The Award</tspan><tspan x="10" y="120" fill="#808285" font-family="'SourceSansPro-LightIt'" font-size="9">Project | mm yyyy</tspan></text>
	<g id="Skills">
		<g id="Bars">
			<line fill="none" stroke="#D1D3D4" stroke-width="3" stroke-miterlimit="10" x1="49.908" y1="303.5" x2="255.033" y2="303.5"/>
			<line fill="none" stroke="#00AEEF" stroke-width="6" stroke-miterlimit="10" x1="49.908" y1="303.5" x2="228.033" y2="303.5"/>
			
				<line fill="none" stroke="#D1D3D4" stroke-width="3" stroke-miterlimit="10" x1="49.908" y1="344.502" x2="255.033" y2="344.502"/>
			
				<line fill="none" stroke="#00AEEF" stroke-width="6" stroke-miterlimit="10" x1="49.908" y1="344.502" x2="182.033" y2="344.502"/>
			
				<line fill="none" stroke="#D1D3D4" stroke-width="3" stroke-miterlimit="10" x1="49.908" y1="384.504" x2="255.033" y2="384.504"/>
			
				<line fill="none" stroke="#00AEEF" stroke-width="6" stroke-miterlimit="10" x1="49.908" y1="384.503" x2="79.533" y2="384.503"/>
			<line fill="none" stroke="#D1D3D4" stroke-width="3" stroke-miterlimit="10" x1="326.936" y1="303.5" x2="523.492" y2="303.5"/>
			<line fill="none" stroke="#00AEEF" stroke-width="6" stroke-miterlimit="10" x1="326.936" y1="303.5" x2="497.62" y2="303.5"/>
			
				<line fill="none" stroke="#D1D3D4" stroke-width="3" stroke-miterlimit="10" x1="326.936" y1="344.502" x2="523.492" y2="344.502"/>
			
				<line fill="none" stroke="#00AEEF" stroke-width="6" stroke-miterlimit="10" x1="326.936" y1="344.502" x2="475.533" y2="344.502"/>
			
				<line fill="none" stroke="#D1D3D4" stroke-width="3" stroke-miterlimit="10" x1="326.936" y1="384.504" x2="523.492" y2="384.504"/>
			
				<line fill="none" stroke="#00AEEF" stroke-width="6" stroke-miterlimit="10" x1="326.936" y1="384.503" x2="523.492" y2="384.503"/>
		</g>
		<rect x="326.945" y="274.653" fill="none" width="219.877" height="106.573"/>
		<text transform="matrix(0.9582 0 0 1 336.5273 282.4849)" font-family="'SourceSansPro-Regular'" font-size="11">Communication</text>
		<text transform="matrix(0.9582 0 0 1 336.5273 293.4849)" fill="#808285" font-family="'SourceSansPro-LightIt'" font-size="9">Teambuilding, process optimising | Since 2006</text>
		<text transform="matrix(1 0 0 1 336.9453 323.4849)" font-family="'SourceSansPro-Regular'" font-size="11">Writing</text>
		<text transform="matrix(1 0 0 1 336.9453 334.4849)" fill="#808285" font-family="'SourceSansPro-LightIt'" font-size="9">Technical and creative writing (ger./en.)  | Since forever</text>
		<text transform="matrix(0.9582 0 0 1 336.5273 364.4849)" font-family="'SourceSansPro-Regular'" font-size="11">Creativity</text>
		<text transform="matrix(0.9582 0 0 1 336.5273 375.4849)" fill="#808285" font-family="'SourceSansPro-LightIt'" font-size="9">“We can do this” | Since forever</text>
		<rect x="49.919" y="274.653" fill="none" width="227.947" height="107.846"/>
		<text transform="matrix(1 0 0 1 59.9189 282.4849)" font-family="'SourceSansPro-Regular'" font-size="11">Adobe Creative Suite</text>
		<text transform="matrix(1 0 0 1 59.9189 293.4849)" fill="#808285" font-family="'SourceSansPro-LightIt'" font-size="9">Photoshop-Rockstar  | Since 2004</text>
		<text transform="matrix(1 0 0 1 59.9189 323.4844)" font-family="'SourceSansPro-Regular'" font-size="11">3D Studio Max</text>
		<text transform="matrix(1 0 0 1 59.9189 334.4844)" fill="#808285" font-family="'SourceSansPro-LightIt'" font-size="9">Low poly modeling, animation, texturing  | Since 2006</text>
		<text transform="matrix(0.9582 0 0 1 59.501 364.4844)" font-family="'SourceSansPro-Regular'" font-size="11">Webdevelopment</text>
		<text transform="matrix(0.9582 0 0 1 59.501 375.4844)" fill="#808285" font-family="'SourceSansPro-LightIt'" font-size="9">XHTML / CSS  | Since 2014</text>
		<rect x="49.919" y="229.656" fill="none" width="497.015" height="50.345"/>
		<text transform="matrix(1 0 0 1 49.9189 241.8984)"><tspan x="0" y="0" fill="#00AEEF" font-family="'Oswald'" font-size="14">Skills</tspan><tspan x="10" y="17" fill="#58595B" font-family="'SourceSansPro-Light'" font-size="9">I would like show you some of the things I am good at when It comes to finding solutions.</tspan></text>
	</g>
	<g id="Additional_education">
		<rect x="49.919" y="101.262" fill="none" width="286.651" height="111.405"/>
		<text transform="matrix(1 0 0 1 49.9189 113.5054)"><tspan x="0" y="0" fill="#00AEEF" font-family="'Oswald'" font-size="14">Additional education</tspan><tspan x="10" y="19" font-family="'SourceSansPro-Regular'" font-size="11">Typewriting course</tspan><tspan x="10" y="30" fill="#808285" font-family="'SourceSansPro-LightIt'" font-size="9">School name, country  |  August 2012 ­­– July 2013</tspan><tspan x="10" y="43" fill="#58595B" font-family="'SourceSansPro-Light'" font-size="9">With a focus on this and that</tspan><tspan x="10" y="62" font-family="'SourceSansPro-Regular'" font-size="11">Adobe Masterclass</tspan><tspan x="10" y="73" fill="#808285" font-family="'SourceSansPro-LightIt'" font-size="9">School name, country  |  August 2012 ­­– July 2013</tspan><tspan x="10" y="86" fill="#58595B" font-family="'SourceSansPro-Light'" font-size="9">With a focus on this and that</tspan></text>
		<rect x="336.57" y="101.262" fill="none" width="210.341" height="111.405"/>
		<text transform="matrix(1 0 0 1 336.5703 132.5059)"><tspan x="0" y="0" font-family="'SourceSansPro-Regular'" font-size="11">Adobe Masterclass</tspan><tspan x="0" y="11" fill="#808285" font-family="'SourceSansPro-LightIt'" font-size="9">School name, country  |  August 2012 ­­– July 2013</tspan><tspan x="0" y="24" fill="#58595B" font-family="'SourceSansPro-Light'" font-size="9">With a focus on this and that</tspan><tspan x="0" y="43" font-family="'SourceSansPro-Regular'" font-size="11">Adobe Masterclass</tspan><tspan x="0" y="54" fill="#808285" font-family="'SourceSansPro-LightIt'" font-size="9">School name, country  |  August 2012 ­­– July 2013</tspan><tspan x="0" y="67" fill="#58595B" font-family="'SourceSansPro-Light'" font-size="9">With a focus on this and that</tspan></text>
	</g>
	<g id="Header_1_">
		<text transform="matrix(1 0 0 1 336.5703 59.4058)"><tspan x="0" y="0" fill="#58595B" font-family="'SourceSansPro-Light'" font-size="9">mail@domain.de</tspan><tspan x="0" y="11" fill="#58595B" font-family="'SourceSansPro-Light'" font-size="9">www.domain.com</tspan></text>
		<text transform="matrix(1 0 0 1 219.0762 59.4058)"><tspan x="0" y="0" fill="#58595B" font-family="'SourceSansPro-Light'" font-size="9">your job</tspan><tspan x="0" y="11" fill="#58595B" font-family="'SourceSansPro-Light'" font-size="9">Curriculum vita </tspan></text>
		<text transform="matrix(1 0 0 1 49.9082 70.498)" fill="#00AEEF" font-family="'Oswald'" font-size="23">Name Name</text>
	</g>
	<text transform="matrix(1 0 0 1 326.9355 818.666)" fill="#58595B" font-family="'SourceSansPro-Light'" font-size="9">2/2</text>
</g>
<g id="First_page">
</g>
</svg>
